<svg xmlns="http://www.w3.org/2000/svg" width="512" height="512" viewBox="0 0 512 512">
  <defs>
    <linearGradient id="bg" x1="0" y1="0" x2="1" y2="1">
      <stop offset="0%" stop-color="#1e1b4b"/>
      <stop offset="100%" stop-color="#4f46e5"/>
    </linearGradient>
  </defs>
  <rect width="512" height="512" rx="110" fill="url(#bg)"/>
  <g transform="translate(90, 80) scale(0.265)" fill="#ffffff">
    <path d="
m1597 1218 c-18 -2 -48 -2 -65 0 -18 2 -4 4 32 4 36 0 50 -2 33 -4z
m470 0 c-73 -2 -193 -2 -265 0 -73 1 -14 3 132 3 146 0 205 -2 133 -3z
m2377 -4 c239 -22 493 -86 685 -174 94 -43 248 -133 290 -170 l30 -26 -30 18 c-23 13 -27 14 -18 2 10 -12 8 -15 -10 -16 -12 -1 -29 -11 -38 -21 -11 -15 -20 -17 -32 -10 -10 5 -21 7 -26 3 -5 -3 -8 3 -6 12 1 10 -5 27 -14 37 -9 11 -10 16 -3 12 18 -11 15 0 -12 43 -14 21 -22 42 -18 46 4 5 -1 5 -11 2 -10 -4 -16 -3 -13 1 3 5 -15 18 -40 30 -51 25 -74 29 -31 6 36 -19 29 -29 -7 -13 -15 7 -25 18 -22 25 6 15 -69 45 -91 37 -10 -4 -14 -2 -10 4 4 7 -6 16 -24 22 -27 9 -30 9 -19 -4 11 -13 10 -14 -11 -6 -13 5 -23 14 -21 20 1 6 1 11 -1 11 -1 0 -34 9 -72 20 -89 26 -183 47 -310 67 -87 15 -248 18 -1225 23 l-1125 5 1060 3 c687 1 1100 -2 1175 -9z
m659 -225 c4 3 8 -5 8 -17 2 -18 0 -19 -8 -7 -8 12 -10 9 -7 -10 3 -20 0 -26 -14 -26 -12 0 -14 4 -8 10 6 6 10 24 11 41 0 16 3 24 6 17 2 -6 8 -10 12 -8z
m151 -81 c0 -13 -3 -13 -15 -3 -8 7 -15 16 -15 21 0 5 7 6 15 3 8 -4 15 -13 15 -21z
m350 -193 c37 -36 50 -51 31 -33 -31 27 -38 29 -49 17 -7 -8 -18 -12 -23 -8 -6 3 -20 -2 -32 -12 -12 -10 -17 -12 -10 -5 16 19 -4 61 -29 61 -11 0 -16 5 -13 10 4 6 10 8 15 5 4 -2 10 7 13 21 3 20 1 24 -11 19 -9 -3 -13 -3 -9 1 4 4 -3 19 -15 33 -41 45 62 -39 132 -109z
m134 -162 c-4 -6 -3 -8 3 -5 6 4 19 -5 28 -19 9 -15 12 -23 6 -20 -6 4 -11 0 -11 -9 0 -12 -4 -13 -18 -6 -9 5 -30 7 -46 4 -26 -5 -27 -4 -17 15 8 15 7 23 -5 33 -10 9 -13 21 -8 38 3 14 7 32 7 40 0 8 15 -2 34 -23 19 -20 31 -42 27 -48z
m111 -166 c-2 -7 0 -10 5 -7 5 3 19 -14 30 -37 12 -24 15 -36 8 -27 -7 9 -19 14 -26 11 -18 -6 -54 35 -50 56 2 9 9 16 16 15 6 -2 9 4 6 12 -4 8 -11 12 -17 8 -6 -4 -7 -1 -2 7 6 10 11 9 22 -6 7 -10 11 -24 8 -32z
m-3515 -55 c0 -2 -10 -12 -22 -23 l-23 -19 19 23 c18 21 26 27 26 19z
m3633 -177 c6 -20 4 -20 -8 5 -8 17 -14 25 -15 18 0 -17 -35 -8 -38 10 -2 10 2 17 8 17 6 0 8 5 4 12 -5 7 -3 8 6 3 9 -5 11 -1 6 16 -3 13 2 6 13 -16 10 -22 21 -51 24 -65z
m-3676 68 c-3 -8 -6 -5 -6 6 -1 11 2 17 5 13 3 -3 4 -12 1 -19z
m2464 -85 c13 -16 12 -17 -3 -4 -10 7 -18 15 -18 17 0 8 8 3 21 -13z
m49 -38 c13 -14 21 -25 18 -25 -2 0 -15 11 -28 25 -13 14 -21 25 -18 25 2 0 15 -11 28 -25z
m115 -115 c10 -11 16 -20 13 -20 -3 0 -13 9 -23 20 -10 11 -16 20 -13 20 3 0 13 -9 23 -20z
m1089 -13 c4 -19 3 -26 -4 -22 -5 3 -10 18 -10 32 0 32 5 28 14 -10z
m24 -27 c0 -9 -3 -7 -8 5 -5 11 -8 29 -8 40 0 16 2 15 8 -5 4 -14 8 -32 8 -40z
m19 -102 c-3 -7 -5 -2 -5 12 0 14 2 19 5 13 2 -7 2 -19 0 -25z
m10 -65 c-3 -10 -5 -4 -5 12 0 17 2 24 5 18 2 -7 2 -21 0 -30z
m10 -85 c-2 -13 -4 -5 -4 17 -1 22 1 32 4 23 2 -10 2 -28 0 -40z
m10 -125 c-3 -10 -5 -4 -5 12 0 17 2 24 5 18 2 -7 2 -21 0 -30z
m-960 -170 c-3 -10 -5 -4 -5 12 0 17 2 24 5 18 2 -7 2 -21 0 -30z
m950 -70 c-3 -10 -5 -4 -5 12 0 17 2 24 5 18 2 -7 2 -21 0 -30z
M7920 9216 c0 -3 9 -10 20 -16 11 -6 20 -8 20 -6 0 3 -9 10 -20 16 -11 6 -20 8 -20 6z
M7937 9153 c-4 -3 -7 -11 -7 -17 0 -6 5 -5 12 2 6 6 9 14 7 17 -3 3 -9 2 -12 -2z
M7942 9121 c-11 -7 -11 -9 0 -14 9 -3 15 1 15 9 0 8 -1 14 -1 14 -1 0 -7 -4 -14 -9z
M8383 8795 c0 -8 4 -12 9 -9 5 3 6 10 3 15 -9 13 -12 11 -12 -6z
"/>
  </g>
</svg>
